<?xml version="1.0" encoding="UTF-8" standalone="no"?>
<svg
   viewBox="0 0 36 36"
   version="1.1"
   id="svg10"
   sodipodi:docname="controller.svg"
   inkscape:version="1.4 (e7c3feb100, 2024-10-09)"
   xmlns:inkscape="http://www.inkscape.org/namespaces/inkscape"
   xmlns:sodipodi="http://sodipodi.sourceforge.net/DTD/sodipodi-0.dtd"
   xmlns="http://www.w3.org/2000/svg"
   xmlns:svg="http://www.w3.org/2000/svg">
  <defs
     id="defs10" />
  <sodipodi:namedview
     id="namedview10"
     pagecolor="#ffffff"
     bordercolor="#000000"
     borderopacity="0.25"
     inkscape:showpageshadow="2"
     inkscape:pageopacity="0.0"
     inkscape:pagecheckerboard="0"
     inkscape:deskcolor="#d1d1d1"
     inkscape:zoom="22.222222"
     inkscape:cx="17.9775"
     inkscape:cy="18"
     inkscape:window-width="1920"
     inkscape:window-height="1011"
     inkscape:window-x="0"
     inkscape:window-y="0"
     inkscape:window-maximized="1"
     inkscape:current-layer="svg10" />
  <path
     fill="#31373D"
     d="M2.13 14.856l-.004-.002S.075 27.271.075 29.061c0 1.824 1.343 3.302 3 3.302.68 0 1.3-.258 1.803-.678l10.166-8.938L2.13 14.856zm31.69 0l.004-.002s2.051 12.417 2.051 14.207c0 1.824-1.343 3.302-3 3.302-.68 0-1.3-.258-1.803-.678l-10.166-8.938 12.914-7.891z"
     id="path1" />
  <g
     fill="#14171A"
     id="g2">
    <circle
       cx="25.975"
       cy="15.551"
       r="8.5"
       id="circle1" />
    <circle
       cx="9.975"
       cy="15.551"
       r="8.5"
       id="circle2" />
    <path
       d="M9.975 7.051h16v16.87h-16z"
       id="path2" />
  </g>
  <circle
     fill="#14171A"
     cx="13.075"
     cy="23.301"
     r="5"
     id="circle3" />
  <circle
     fill="#14171A"
     cx="22.875"
     cy="23.301"
     r="5"
     id="circle4" />
  <circle
     fill="#67757F"
     cx="22.875"
     cy="23.301"
     r="3"
     id="circle5"
     style="fill:#67757f;fill-opacity:1" />
  <circle
     fill="#67757f"
     cx="17.9"
     cy="16.445"
     id="circle5-7"
     style="stroke-width:0.5;fill:#67757f;fill-opacity:1"
     r="1.5" />
  <circle
     fill="#67757F"
     cx="13.075"
     cy="23.301"
     r="3"
     id="circle6"
     style="fill:#67757f;fill-opacity:1" />
  <ellipse
     fill="#67757f"
     cx="20.9"
     cy="10"
     id="circle6-3"
     style="stroke-width:0.408248;fill:#67757f;fill-opacity:1"
     rx="1.5"
     ry="1" />
  <ellipse
     fill="#67757f"
     cx="14.9"
     cy="10"
     id="circle6-3-6"
     style="stroke-width:0.408248;fill:#67757f;fill-opacity:1"
     rx="1.5"
     ry="1" />
  <circle
     fill="#ffcc4d"
     cx="27.735001"
     cy="11.133"
     r="1.603"
     id="circle7"
     style="fill:#67757f;fill-opacity:1" />
  <circle
     fill="#77b255"
     cx="27.735001"
     cy="17.607"
     r="1.603"
     id="circle8"
     style="fill:#67757f;fill-opacity:1" />
  <circle
     fill="#50a5e6"
     cx="24.497999"
     cy="14.369999"
     r="1.603"
     id="circle9"
     style="fill:#67757f;fill-opacity:1" />
  <circle
     fill="#dd2e44"
     cx="30.972"
     cy="14.369999"
     r="1.603"
     id="circle10"
     style="fill:#67757f;fill-opacity:1" />
  <path
     d="M 9.148,12.514 V 10.346 C 9.148,10.067 8.922,9.841 8.643,9.841 H 7.085 c -0.279,0 -0.505,0.226 -0.505,0.505 v 2.168 l 1.284,1.285 z m -2.569,3.63 v 2.168 c 0,0.279 0.226,0.505 0.505,0.505 h 1.558 c 0.279,0 0.505,-0.226 0.505,-0.505 V 16.144 L 7.863,14.859 Z m 5.269,-3.1 H 9.68 l -1.285,1.285 1.285,1.285 h 2.168 c 0.279,0 0.505,-0.227 0.505,-0.505 V 13.55 c 0,-0.279 -0.226,-0.506 -0.505,-0.506 z m -5.799,0 H 3.88 c -0.279,0 -0.505,0.227 -0.505,0.505 v 1.558 c 0,0.279 0.226,0.505 0.505,0.505 h 2.168 l 1.285,-1.285 z"
     fill="#8899a6"
     id="path10"
     style="fill:#67757f;fill-opacity:1" />
</svg>
